<?xml version="1.0" encoding="UTF-8" standalone="no"?>
<!-- Generator: Adobe Illustrator 23.0.1, SVG Export Plug-In . SVG Version: 6.00 Build 0)  -->

<svg
   xmlns:dc="http://purl.org/dc/elements/1.1/"
   xmlns:cc="http://creativecommons.org/ns#"
   xmlns:rdf="http://www.w3.org/1999/02/22-rdf-syntax-ns#"
   xmlns:svg="http://www.w3.org/2000/svg"
   xmlns="http://www.w3.org/2000/svg"
   xmlns:sodipodi="http://sodipodi.sourceforge.net/DTD/sodipodi-0.dtd"
   xmlns:inkscape="http://www.inkscape.org/namespaces/inkscape"
   version="1.1"
   id="Layer_1"
   x="0px"
   y="0px"
   viewBox="0 0 136.38 136.36999"
   xml:space="preserve"
   sodipodi:docname="english.svg"
   width="136.38"
   height="136.37"
   inkscape:version="0.92.3 (2405546, 2018-03-11)"><metadata
   id="metadata949"><rdf:RDF><cc:Work
       rdf:about=""><dc:format>image/svg+xml</dc:format><dc:type
         rdf:resource="http://purl.org/dc/dcmitype/StillImage" /><dc:title></dc:title></cc:Work></rdf:RDF></metadata><defs
   id="defs947">
	
	

		
		
		
		
		
	</defs><sodipodi:namedview
   pagecolor="#ffffff"
   bordercolor="#666666"
   borderopacity="1"
   objecttolerance="10"
   gridtolerance="10"
   guidetolerance="10"
   inkscape:pageopacity="0"
   inkscape:pageshadow="2"
   inkscape:window-width="1916"
   inkscape:window-height="1037"
   id="namedview945"
   showgrid="false"
   fit-margin-top="0"
   fit-margin-left="0"
   fit-margin-right="0"
   fit-margin-bottom="0"
   inkscape:zoom="3.2746438"
   inkscape:cx="111.25312"
   inkscape:cy="37.06799"
   inkscape:window-x="0"
   inkscape:window-y="20"
   inkscape:window-maximized="0"
   inkscape:current-layer="Layer_1" />
<style
   type="text/css"
   id="style902">
	.st0{fill:#2656A6;}
	.st1{fill:#671D5B;}
	.st2{font-family:'Arvo-Bold';}
	.st3{font-size:31.5245px;}
</style>
<g
   id="g922"
   style="fill:#bf0a30;fill-opacity:1"
   transform="translate(-43.87,-12.73)">
			<path
   class="st0"
   d="m 148.32,138.66 c 19.18,-12.07 31.93,-33.41 31.93,-57.74 0,-14.08 -4.27,-27.17 -11.59,-38.03 -3.23,1.69 -6.56,3.2 -9.99,4.53 -0.53,4.36 -4.24,7.74 -8.74,7.74 -0.57,0 -1.13,-0.06 -1.68,-0.16 -15.69,16.03 -25.55,37.78 -26.13,61.79 3.79,0.98 6.59,4.42 6.59,8.52 0,1.01 -0.18,1.98 -0.49,2.88 6.2,4.27 12.94,7.8 20.1,10.47 z"
   id="path904"
   inkscape:connector-curvature="0"
   style="fill:#bf0a30;fill-opacity:1" />
			<path
   class="st0"
   d="m 116.36,133.36 c -3.09,-1.37 -5.26,-4.46 -5.26,-8.06 0,-0.78 0.11,-1.52 0.3,-2.24 -7.09,-6.94 -13.14,-14.93 -17.89,-23.73 -0.16,0.01 -0.33,0.02 -0.49,0.02 -3.63,0 -6.74,-2.2 -8.09,-5.33 -4.53,0.79 -9.17,1.27 -13.9,1.41 -9,0.27 -17.75,-0.68 -26.11,-2.7 5.6,32.02 33.52,56.37 67.15,56.37 2.64,0 5.24,-0.17 7.8,-0.46 -1.56,-4.93 -2.75,-10.04 -3.51,-15.28 z"
   id="path906"
   inkscape:connector-curvature="0"
   style="fill:#bf0a30;fill-opacity:1" />
			<path
   class="st0"
   d="m 140.99,52.42 c -5.76,1.05 -11.7,1.61 -17.76,1.61 -9.69,0 -19.06,-1.42 -27.92,-4.04 -1.33,2.48 -3.81,4.25 -6.72,4.6 0.19,9.47 1.81,18.59 4.68,27.16 1.91,0.05 3.66,0.71 5.08,1.79 17.13,-6.02 31.9,-16.98 42.64,-31.12 z"
   id="path908"
   inkscape:connector-curvature="0"
   style="fill:#bf0a30;fill-opacity:1" />
			<path
   class="st0"
   d="m 86.92,84.19 c -3.34,-9.87 -5.15,-20.44 -5.15,-31.43 0,-0.09 0,-0.17 0,-0.26 -1.87,-1.62 -3.05,-4 -3.05,-6.66 0,-0.8 0.12,-1.57 0.32,-2.31 -5.64,-2.85 -10.97,-6.22 -15.93,-10.06 -11.9,12.28 -19.24,29 -19.24,47.45 0,1.54 0.07,3.07 0.17,4.58 8.51,2.31 17.5,3.43 26.77,3.15 4.8,-0.15 9.5,-0.66 14.08,-1.52 0.47,-1.12 1.17,-2.11 2.03,-2.94 z"
   id="path910"
   inkscape:connector-curvature="0"
   style="fill:#bf0a30;fill-opacity:1" />
			<path
   class="st0"
   d="m 141.17,45.47 c 0.44,-4.45 4.2,-7.93 8.77,-7.93 0.09,0 0.18,0.01 0.26,0.01 1.6,-3.24 3.02,-6.59 4.24,-10.03 -11.64,-9.25 -26.36,-14.79 -42.38,-14.79 -5.18,0 -10.23,0.6 -15.08,1.69 -3.33,7.19 -5.75,14.88 -7.12,22.93 2.84,0.78 5.11,2.94 6.03,5.72 8.64,2.7 17.82,4.16 27.33,4.16 6.15,0.01 12.15,-0.61 17.95,-1.76 z"
   id="path912"
   inkscape:connector-curvature="0"
   style="fill:#bf0a30;fill-opacity:1" />
			<path
   class="st0"
   d="m 115.33,117.41 c 0.23,-14.17 3.47,-27.62 9.11,-39.74 -6.95,4.88 -14.55,8.88 -22.67,11.85 0.04,0.33 0.06,0.67 0.06,1.02 0,2.23 -0.84,4.27 -2.21,5.82 4.22,7.76 9.52,14.85 15.71,21.05 z"
   id="path914"
   inkscape:connector-curvature="0"
   style="fill:#bf0a30;fill-opacity:1" />
			<path
   class="st0"
   d="m 123.66,133.27 c -0.14,0.07 -0.28,0.13 -0.42,0.19 0.77,4.83 1.91,9.53 3.4,14.07 4.87,-1.06 9.54,-2.64 13.96,-4.68 -5.98,-2.64 -11.65,-5.86 -16.94,-9.58 z"
   id="path916"
   inkscape:connector-curvature="0"
   style="fill:#bf0a30;fill-opacity:1" />
			<path
   class="st0"
   d="m 88.54,16.9 c -7.51,2.76 -14.4,6.82 -20.4,11.88 4.6,3.47 9.54,6.52 14.76,9.09 1.11,-7.28 3.02,-14.3 5.64,-20.97 z"
   id="path918"
   inkscape:connector-curvature="0"
   style="fill:#bf0a30;fill-opacity:1" />
			<path
   class="st0"
   d="m 159.9,32.34 c -0.8,2.07 -1.67,4.1 -2.6,6.1 1.69,-1.19 3.43,-2.33 5.2,-3.41 -0.84,-0.92 -1.71,-1.82 -2.6,-2.69 z"
   id="path920"
   inkscape:connector-curvature="0"
   style="fill:#bf0a30;fill-opacity:1" />
		</g><circle
   class="st1"
   cx="43.439999"
   cy="33.130001"
   r="6.4099998"
   id="circle924"
   style="fill:#002868;fill-opacity:1" /><circle
   class="st1"
   cx="49.360004"
   cy="77.939995"
   r="6.4099998"
   id="circle926"
   style="fill:#002868;fill-opacity:1" /><circle
   class="st1"
   cx="106.3"
   cy="33.860001"
   r="6.4099998"
   id="circle928"
   style="fill:#002868;fill-opacity:1" /><circle
   class="st1"
   cx="76.229996"
   cy="112.5"
   r="6.4099998"
   id="circle930"
   style="fill:#002868;fill-opacity:1" />
</svg>